<?xml version="1.0" standalone="no"?>
<!DOCTYPE svg PUBLIC "-//W3C//DTD SVG 20010904//EN"
 "http://www.w3.org/TR/2001/REC-SVG-20010904/DTD/svg10.dtd">
<svg version="1.0" xmlns="http://www.w3.org/2000/svg"
 width="340.000000pt" height="340.000000pt" viewBox="0 0 340.000000 340.000000"
 preserveAspectRatio="xMidYMid meet">
<metadata>
Created by potrace 1.11, written by Peter Selinger 2001-2013
</metadata>
<g transform="translate(0.000000,340.000000) scale(0.100000,-0.100000)"
fill="#000000" stroke="none">
<path d="M1630 2421 c-5 -11 -10 -46 -10 -78 l0 -59 -371 -20 c-314 -18 -373
-24 -387 -38 -15 -14 -17 -46 -20 -221 l-3 -205 25 -25 c19 -19 36 -25 68 -25
30 0 658 -37 686 -40 10 -1 -1 -40 -11 -40 -8 0 -112 7 -233 15 -358 24 -342
25 -370 -8 -24 -28 -24 -30 -24 -246 0 -206 1 -220 21 -245 25 -32 48 -32 344
-11 110 8 217 15 238 15 l37 0 0 -145 0 -145 49 0 c35 0 51 4 55 16 3 9 6 76
6 150 0 100 3 134 13 134 6 0 142 9 301 20 234 15 292 22 305 35 25 24 24 327
-1 351 -14 15 -61 20 -285 35 -147 10 -283 18 -300 18 -28 1 -33 5 -33 25 0
22 4 24 33 21 17 -3 178 -12 355 -21 320 -16 324 -16 350 3 15 11 30 31 33 44
4 13 7 133 8 267 1 267 -5 303 -54 322 -24 9 -384 -5 -646 -25 l-76 -6 -6 61
c-3 33 -11 67 -17 75 -18 22 -67 19 -80 -4z"/>
</g>
</svg>
